<svg xmlns="http://www.w3.org/2000/svg" xmlns:xlink="http://www.w3.org/1999/xlink" width="458" height="265" viewBox="0 0 458 265"><defs><style>.cls-1{isolation:isolate;}.cls-2{fill:#ff2038;}.cls-3,.cls-6{fill:none;stroke-miterlimit:10;stroke-width:2px;}.cls-3{stroke:url(#linear-gradient);}.cls-4{fill:url(#linear-gradient-2);}.cls-5{fill:url(#linear-gradient-3);}.cls-6{stroke:url(#linear-gradient-4);}.cls-7{fill:url(#linear-gradient-5);}.cls-8{fill:url(#linear-gradient-6);}.cls-9{opacity:0.41;fill:url(#linear-gradient-7);}.cls-10{opacity:0.4;fill:url(#linear-gradient-8);}.cls-11{fill:url(#linear-gradient-9);}.cls-12{fill:url(#linear-gradient-10);}.cls-13{fill:#ec4bff;}.cls-14,.cls-15{mix-blend-mode:color-burn;}.cls-14{fill:url(#linear-gradient-11);}.cls-15{fill:url(#linear-gradient-12);}</style><linearGradient id="linear-gradient" x1="68" y1="98" x2="135" y2="98" gradientUnits="userSpaceOnUse"><stop offset="0" stop-color="#fff"/><stop offset="0.01" stop-color="#fff"/><stop offset="0.2" stop-color="#6fd6d8"/><stop offset="1" stop-color="#5519ff"/></linearGradient><linearGradient id="linear-gradient-2" x1="58" y1="98" x2="76" y2="98" gradientUnits="userSpaceOnUse"><stop offset="0" stop-color="#ff89e8"/><stop offset="1" stop-color="#ff2038"/></linearGradient><linearGradient id="linear-gradient-3" x1="107" x2="117" xlink:href="#linear-gradient-2"/><linearGradient id="linear-gradient-4" x1="260.89" y1="160.24" x2="343.89" y2="160.24" gradientTransform="translate(620.89 318.24) rotate(180)" xlink:href="#linear-gradient"/><linearGradient id="linear-gradient-5" x1="368" y1="158" x2="350" y2="158" xlink:href="#linear-gradient-2"/><linearGradient id="linear-gradient-6" x1="320" y1="158" x2="310" y2="158" xlink:href="#linear-gradient-2"/><linearGradient id="linear-gradient-7" x1="95" y1="131.5" x2="326" y2="131.5" gradientUnits="userSpaceOnUse"><stop offset="0" stop-color="#5519ff" stop-opacity="0"/><stop offset="1" stop-color="#5519ff" stop-opacity="0.2"/></linearGradient><linearGradient id="linear-gradient-8" x1="249.26" y1="88.5" x2="323.46" y2="88.5" xlink:href="#linear-gradient"/><linearGradient id="linear-gradient-9" x1="102.26" y1="3478.85" x2="102.26" y2="3342.52" gradientTransform="translate(133.24 -3308.14)" gradientUnits="userSpaceOnUse"><stop offset="0" stop-color="#5519ff"/><stop offset="0.14" stop-color="#5519ff"/><stop offset="1" stop-color="#6fe5e7"/><stop offset="1" stop-color="#6fe5e7"/></linearGradient><linearGradient id="linear-gradient-10" x1="105.26" y1="3317.77" x2="105.26" y2="3543.37" gradientTransform="translate(127.24 -3301.14)" gradientUnits="userSpaceOnUse"><stop offset="0" stop-color="#6fe5e7"/><stop offset="1" stop-color="#ff7bff"/></linearGradient><linearGradient id="linear-gradient-11" x1="217" y1="131" x2="240" y2="131" gradientUnits="userSpaceOnUse"><stop offset="0" stop-color="#ff2038"/><stop offset="0.98" stop-color="#5519ff"/></linearGradient><linearGradient id="linear-gradient-12" x1="104" x2="206" xlink:href="#linear-gradient-11"/></defs><g class="cls-1"><g id="Cognitive_Services" data-name="Cognitive Services"><g id="Left_pattern" data-name="Left pattern"><polygon class="cls-2" points="147 171 147 173.93 148.55 172.39 149.87 174.6 153.48 171 147 171"/><polygon class="cls-2" points="148.96 193.16 147 193.75 147 198.97 151.6 197.58 159.12 190.08 156.48 185.66 148.96 193.16"/><polygon class="cls-2" points="154.24 202 147 204.19 147 209.41 156.88 206.42 164.41 198.92 161.76 194.5 154.24 202"/><polygon class="cls-2" points="159.53 210.84 149.36 213.92 147 216.28 147 223.33 152.01 218.34 162.17 215.27 169.69 207.77 167.05 203.35 159.53 210.84"/><polygon class="cls-2" points="164.82 219.69 154.65 222.76 147.13 230.26 147 230.05 147 233.92 148.45 232.47 149.77 234.68 157.29 227.19 167.46 224.11 174.98 216.61 172.34 212.19 164.82 219.69"/><polygon class="cls-2" points="151.09 236.89 147.98 240 152.95 240 151.09 236.89"/><polygon class="cls-2" points="196.63 212.67 186.47 215.75 178.95 223.25 177.63 221.03 170.1 228.53 159.94 231.61 152.41 239.1 152.95 240 158.6 240 162.58 236.03 172.75 232.95 180.27 225.46 181.59 227.67 189.11 220.17 199.28 217.09 206.8 209.59 204.16 205.17 196.63 212.67"/><polygon class="cls-2" points="161.78 171 160.03 171.53 152.51 179.03 151.19 176.81 147 180.99 147 188.05 153.83 181.24 155.16 183.45 162.68 175.95 172.84 172.87 174.72 171 161.78 171"/><polygon class="cls-2" points="175.49 177.29 165.32 180.37 157.8 187.87 160.44 192.29 167.97 184.79 178.13 181.72 185.65 174.22 183.73 171 181.8 171 175.49 177.29"/><polygon class="cls-2" points="170.61 189.22 163.09 196.71 165.73 201.13 173.25 193.64 183.42 190.56 190.94 183.06 188.3 178.64 180.77 186.14 170.61 189.22"/><polygon class="cls-2" points="178.54 202.48 188.7 199.41 186.06 194.98 175.9 198.06 168.37 205.56 171.02 209.98 178.54 202.48"/><polygon class="cls-2" points="173.66 214.4 176.3 218.82 183.82 211.32 193.99 208.25 191.35 203.83 181.18 206.9 173.66 214.4"/><polygon class="cls-2" points="209.44 214.02 201.92 221.51 191.75 224.59 184.23 232.09 182.91 229.88 175.39 237.38 166.72 240 179.84 240 185.56 234.3 186.88 236.51 194.4 229.01 204.56 225.94 212.09 218.44 210.76 216.23 209.44 214.02"/><polygon class="cls-2" points="216 211.01 210.76 216.23 213.41 220.65 216 218.07 216 211.01"/><polygon class="cls-2" points="216 224.99 214.73 222.86 207.21 230.36 197.04 233.44 190.46 240 197.53 240 199.69 237.86 209.85 234.78 216 228.65 216 224.99"/><polygon class="cls-2" points="188.96 240 188.2 238.72 186.92 240 188.96 240"/><polygon class="cls-2" points="209.86 240 216 240 216 235.71 212.5 239.2 209.86 240"/></g><g id="Left_circles" data-name="Left circles"><line class="cls-3" x1="68" y1="98" x2="135" y2="98"/><circle class="cls-4" cx="67" cy="98" r="9"/><circle class="cls-5" cx="112" cy="98" r="5"/></g><g id="Right_circles" data-name="Right circles"><line class="cls-6" x1="360" y1="158" x2="277" y2="158"/><circle class="cls-7" cx="359" cy="158" r="9"/><circle class="cls-8" cx="315" cy="158" r="5"/></g><circle class="cls-9" cx="210.5" cy="131.5" r="115.5"/><path id="Right_pattern" data-name="Right pattern" class="cls-10" d="M249.31,121.83a5.74,5.74,0,0,1-4.16-4.16,5.71,5.71,0,0,1-4.15,4.16,5.74,5.74,0,0,1,4.15,4.17A5.77,5.77,0,0,1,249.31,121.83Zm16.61,0a5.72,5.72,0,0,1-4.15-4.16,5.72,5.72,0,0,1-4.15,4.16,5.75,5.75,0,0,1,4.15,4.17A5.75,5.75,0,0,1,265.92,121.83Zm16.62,0a5.74,5.74,0,0,1-4.16-4.16,5.71,5.71,0,0,1-4.15,4.16,5.74,5.74,0,0,1,4.15,4.17A5.77,5.77,0,0,1,282.54,121.83Zm16.61,0a5.72,5.72,0,0,1-4.15-4.16,5.72,5.72,0,0,1-4.15,4.16A5.75,5.75,0,0,1,295,126,5.75,5.75,0,0,1,299.15,121.83Zm16.62,0a5.71,5.71,0,0,1-4.15-4.16,5.74,5.74,0,0,1-4.16,4.16,5.77,5.77,0,0,1,4.16,4.17A5.74,5.74,0,0,1,315.77,121.83Zm16.61,0a5.72,5.72,0,0,1-4.15-4.16,5.72,5.72,0,0,1-4.15,4.16,5.75,5.75,0,0,1,4.15,4.17A5.75,5.75,0,0,1,332.38,121.83Zm16.62,0a5.71,5.71,0,0,1-4.15-4.16,5.74,5.74,0,0,1-4.16,4.16,5.77,5.77,0,0,1,4.16,4.17A5.74,5.74,0,0,1,349,121.83Zm-99.69-16.66a5.77,5.77,0,0,1-4.16-4.17,5.74,5.74,0,0,1-4.15,4.17,5.72,5.72,0,0,1,4.15,4.16A5.75,5.75,0,0,1,249.31,105.17Zm16.61,0a5.75,5.75,0,0,1-4.15-4.17,5.75,5.75,0,0,1-4.15,4.17,5.74,5.74,0,0,1,4.15,4.16A5.74,5.74,0,0,1,265.92,105.17Zm16.62,0a5.77,5.77,0,0,1-4.16-4.17,5.74,5.74,0,0,1-4.15,4.17,5.72,5.72,0,0,1,4.15,4.16A5.75,5.75,0,0,1,282.54,105.17Zm16.61,0A5.75,5.75,0,0,1,295,101a5.75,5.75,0,0,1-4.15,4.17,5.74,5.74,0,0,1,4.15,4.16A5.74,5.74,0,0,1,299.15,105.17Zm16.62,0a5.74,5.74,0,0,1-4.15-4.17,5.77,5.77,0,0,1-4.16,4.17,5.75,5.75,0,0,1,4.16,4.16A5.72,5.72,0,0,1,315.77,105.17Zm16.61,0a5.75,5.75,0,0,1-4.15-4.17,5.75,5.75,0,0,1-4.15,4.17,5.74,5.74,0,0,1,4.15,4.16A5.74,5.74,0,0,1,332.38,105.17Zm16.62,0a5.74,5.74,0,0,1-4.15-4.17,5.77,5.77,0,0,1-4.16,4.17,5.75,5.75,0,0,1,4.16,4.16A5.72,5.72,0,0,1,349,105.17ZM249.31,88.5a5.77,5.77,0,0,1-4.16-4.17A5.74,5.74,0,0,1,241,88.5a5.74,5.74,0,0,1,4.15,4.17A5.77,5.77,0,0,1,249.31,88.5Zm16.61,0a5.75,5.75,0,0,1-4.15-4.17,5.75,5.75,0,0,1-4.15,4.17,5.75,5.75,0,0,1,4.15,4.17A5.75,5.75,0,0,1,265.92,88.5Zm16.62,0a5.77,5.77,0,0,1-4.16-4.17,5.74,5.74,0,0,1-4.15,4.17,5.74,5.74,0,0,1,4.15,4.17A5.77,5.77,0,0,1,282.54,88.5Zm16.61,0A5.75,5.75,0,0,1,295,84.33a5.75,5.75,0,0,1-4.15,4.17A5.75,5.75,0,0,1,295,92.67,5.75,5.75,0,0,1,299.15,88.5Zm16.62,0a5.74,5.74,0,0,1-4.15-4.17,5.77,5.77,0,0,1-4.16,4.17,5.77,5.77,0,0,1,4.16,4.17A5.74,5.74,0,0,1,315.77,88.5Zm16.61,0a5.75,5.75,0,0,1-4.15-4.17,5.75,5.75,0,0,1-4.15,4.17,5.75,5.75,0,0,1,4.15,4.17A5.75,5.75,0,0,1,332.38,88.5Zm16.62,0a5.74,5.74,0,0,1-4.15-4.17,5.77,5.77,0,0,1-4.16,4.17,5.77,5.77,0,0,1,4.16,4.17A5.74,5.74,0,0,1,349,88.5ZM249.31,71.83a5.74,5.74,0,0,1-4.16-4.16A5.71,5.71,0,0,1,241,71.83,5.74,5.74,0,0,1,245.15,76,5.77,5.77,0,0,1,249.31,71.83Zm16.61,0a5.72,5.72,0,0,1-4.15-4.16,5.72,5.72,0,0,1-4.15,4.16A5.75,5.75,0,0,1,261.77,76,5.75,5.75,0,0,1,265.92,71.83Zm16.62,0a5.74,5.74,0,0,1-4.16-4.16,5.71,5.71,0,0,1-4.15,4.16A5.74,5.74,0,0,1,278.38,76,5.77,5.77,0,0,1,282.54,71.83Zm16.61,0A5.72,5.72,0,0,1,295,67.67a5.72,5.72,0,0,1-4.15,4.16A5.75,5.75,0,0,1,295,76,5.75,5.75,0,0,1,299.15,71.83Zm16.62,0a5.71,5.71,0,0,1-4.15-4.16,5.74,5.74,0,0,1-4.16,4.16A5.77,5.77,0,0,1,311.62,76,5.74,5.74,0,0,1,315.77,71.83Zm16.61,0a5.72,5.72,0,0,1-4.15-4.16,5.72,5.72,0,0,1-4.15,4.16A5.75,5.75,0,0,1,328.23,76,5.75,5.75,0,0,1,332.38,71.83Zm16.62,0a5.71,5.71,0,0,1-4.15-4.16,5.74,5.74,0,0,1-4.16,4.16A5.77,5.77,0,0,1,344.85,76,5.74,5.74,0,0,1,349,71.83ZM249.31,55.17A5.77,5.77,0,0,1,245.15,51,5.74,5.74,0,0,1,241,55.17a5.72,5.72,0,0,1,4.15,4.16A5.75,5.75,0,0,1,249.31,55.17Zm16.61,0A5.75,5.75,0,0,1,261.77,51a5.75,5.75,0,0,1-4.15,4.17,5.74,5.74,0,0,1,4.15,4.16A5.74,5.74,0,0,1,265.92,55.17Zm16.62,0A5.77,5.77,0,0,1,278.38,51a5.74,5.74,0,0,1-4.15,4.17,5.72,5.72,0,0,1,4.15,4.16A5.75,5.75,0,0,1,282.54,55.17Zm16.61,0A5.75,5.75,0,0,1,295,51a5.75,5.75,0,0,1-4.15,4.17A5.74,5.74,0,0,1,295,59.33,5.74,5.74,0,0,1,299.15,55.17Zm16.62,0A5.74,5.74,0,0,1,311.62,51a5.77,5.77,0,0,1-4.16,4.17,5.75,5.75,0,0,1,4.16,4.16A5.72,5.72,0,0,1,315.77,55.17Zm16.61,0A5.75,5.75,0,0,1,328.23,51a5.75,5.75,0,0,1-4.15,4.17,5.74,5.74,0,0,1,4.15,4.16A5.74,5.74,0,0,1,332.38,55.17Zm16.62,0A5.74,5.74,0,0,1,344.85,51a5.77,5.77,0,0,1-4.16,4.17,5.75,5.75,0,0,1,4.16,4.16A5.72,5.72,0,0,1,349,55.17Z"/><g id="Phone"><rect class="cls-11" x="183" y="35" width="105" height="180" rx="6" transform="translate(471 250) rotate(-180)"/><rect class="cls-12" x="183" y="42" width="99" height="173" rx="5.11" transform="translate(465 257) rotate(-180)"/><circle class="cls-13" cx="232" cy="58" r="6"/></g><g id="AI"><rect class="cls-14" x="217" y="81" width="23" height="100"/><path class="cls-15" d="M168.6,81H141.41L104,181h24l7.76-22.71h37.55L181.11,181H206ZM142,139.86l6.62-19.14,5.9-19.86,6,19.86L167,139.86Z"/></g></g></g></svg>